<svg width="79" height="33" viewBox="0 0 79 33" fill="none" xmlns="http://www.w3.org/2000/svg">
<path d="M13.5578 14.558L16.6387 11.4826L17.2914 10.8355L18.8346 9.29217L24.0784 14.558L27.1372 11.4826L18.8346 3.16895L10.5044 11.4826L13.5578 14.558Z" fill="white"/>
<path d="M18.8364 13.6758L15.77 16.7422L18.8364 19.8086L21.9028 16.7422L18.8364 13.6758Z" fill="white"/>
<path d="M24.0784 18.9395L18.8291 24.1887L16.9872 22.3467L16.6498 22.0093L13.5578 18.9395L10.5044 21.9983L18.8346 30.3119L27.1372 21.9983L24.0784 18.9395Z" fill="white"/>
<path d="M8.31397 13.6836L5.24756 16.75L8.31396 19.8164L11.3804 16.75L8.31397 13.6836Z" fill="white"/>
<path d="M29.3381 13.6816L26.2717 16.748L29.3381 19.8144L32.4045 16.748L29.3381 13.6816Z" fill="white"/>
<path d="M48.6026 14.1399C49.2 14.2465 49.7066 14.5612 50.1226 15.0839C50.5386 15.6065 50.7466 16.1985 50.7466 16.8599C50.7466 17.4252 50.5973 17.9372 50.2986 18.3959C50.0106 18.8439 49.5893 19.2012 49.0346 19.4679C48.48 19.7239 47.8346 19.8519 47.0986 19.8519H42.6506V8.73182H46.8906C47.648 8.73182 48.2986 8.85982 48.8426 9.11582C49.3866 9.37186 49.7973 9.71853 50.0746 10.1559C50.352 10.5825 50.4906 11.0625 50.4906 11.5959C50.4906 12.2359 50.32 12.7692 49.9786 13.1959C49.6373 13.6225 49.1786 13.9372 48.6026 14.1399ZM44.4746 13.4039H46.7306C47.328 13.4039 47.792 13.2705 48.1226 13.0039C48.464 12.7265 48.6346 12.3319 48.6346 11.8199C48.6346 11.3185 48.464 10.9292 48.1226 10.6519C47.792 10.3639 47.328 10.2199 46.7306 10.2199H44.4746V13.4039ZM46.9386 18.3639C47.5573 18.3639 48.0426 18.2145 48.3946 17.9159C48.7466 17.6172 48.9226 17.2012 48.9226 16.6679C48.9226 16.1239 48.736 15.6919 48.3626 15.3719C47.9893 15.0519 47.4933 14.8919 46.8746 14.8919H44.4746V18.3639H46.9386ZM61.8648 19.8519H60.0408L54.5528 11.5479V19.8519H52.7288V8.71582H54.5528L60.0408 17.0039V8.71582H61.8648V19.8519ZM70.2121 14.1399C70.8094 14.2465 71.3161 14.5612 71.7321 15.0839C72.1481 15.6065 72.3561 16.1985 72.3561 16.8599C72.3561 17.4252 72.2067 17.9372 71.9081 18.3959C71.6201 18.8439 71.1987 19.2012 70.6441 19.4679C70.0894 19.7239 69.4441 19.8519 68.7081 19.8519H64.2601V8.73182H68.5001C69.2574 8.73182 69.9081 8.85982 70.4521 9.11582C70.9961 9.37186 71.4067 9.71853 71.6841 10.1559C71.9614 10.5825 72.1001 11.0625 72.1001 11.5959C72.1001 12.2359 71.9294 12.7692 71.5881 13.1959C71.2467 13.6225 70.7881 13.9372 70.2121 14.1399ZM66.0841 13.4039H68.3401C68.9374 13.4039 69.4014 13.2705 69.7321 13.0039C70.0734 12.7265 70.2441 12.3319 70.2441 11.8199C70.2441 11.3185 70.0734 10.9292 69.7321 10.6519C69.4014 10.3639 68.9374 10.2199 68.3401 10.2199H66.0841V13.4039ZM68.5481 18.3639C69.1667 18.3639 69.6521 18.2145 70.0041 17.9159C70.3561 17.6172 70.5321 17.2012 70.5321 16.6679C70.5321 16.1239 70.3454 15.6919 69.9721 15.3719C69.5987 15.0519 69.1027 14.8919 68.4841 14.8919H66.0841V18.3639H68.5481Z" fill="white"/>
<path d="M45.7077 25.5494C45.9329 25.5849 46.1374 25.6767 46.321 25.8249C46.5107 25.973 46.6588 26.1567 46.7655 26.376C46.8781 26.5952 46.9344 26.8294 46.9344 27.0782C46.9344 27.3923 46.8544 27.6767 46.6944 27.9316C46.5344 28.1805 46.3003 28.379 45.9921 28.5271C45.6899 28.6694 45.3314 28.7405 44.9166 28.7405H42.6055V22.5449H44.8277C45.2485 22.5449 45.607 22.616 45.9032 22.7582C46.1996 22.8945 46.4218 23.0812 46.5699 23.3182C46.7181 23.5552 46.7921 23.8219 46.7921 24.1182C46.7921 24.4856 46.6914 24.7908 46.4899 25.0338C46.2944 25.2708 46.0336 25.4427 45.7077 25.5494ZM43.4144 25.2205H44.7744C45.1536 25.2205 45.447 25.1316 45.6544 24.9538C45.8618 24.776 45.9655 24.5301 45.9655 24.216C45.9655 23.9019 45.8618 23.656 45.6544 23.4782C45.447 23.3005 45.1477 23.2116 44.7566 23.2116H43.4144V25.2205ZM44.8455 28.0738C45.2485 28.0738 45.5625 27.979 45.7877 27.7894C46.0129 27.5997 46.1255 27.336 46.1255 26.9982C46.1255 26.6545 46.007 26.3849 45.7699 26.1894C45.5329 25.9878 45.2159 25.8871 44.8188 25.8871H43.4144V28.0738H44.8455ZM48.8657 23.2027V25.2738H51.1235V25.9405H48.8657V28.0738H51.3902V28.7405H48.0568V22.536H51.3902V23.2027H48.8657ZM56.7564 24.3582C56.7564 24.8738 56.5786 25.3034 56.2231 25.6471C55.8735 25.9849 55.3371 26.1538 54.6142 26.1538H53.4231V28.7405H52.6142V22.5449H54.6142C55.3135 22.5449 55.8438 22.7138 56.2053 23.0516C56.5727 23.3894 56.7564 23.8249 56.7564 24.3582ZM54.6142 25.4871C55.0646 25.4871 55.3964 25.3894 55.6097 25.1938C55.8231 24.9982 55.9297 24.7197 55.9297 24.3582C55.9297 23.5938 55.4912 23.2116 54.6142 23.2116H53.4231V25.4871H54.6142ZM61.1395 25.1405V25.8249H57.5928V25.1405H61.1395ZM62.4264 28.0916C63.1791 27.4871 63.7687 26.9923 64.1953 26.6071C64.622 26.216 64.9805 25.8101 65.2709 25.3894C65.5672 24.9627 65.7153 24.5449 65.7153 24.136C65.7153 23.7508 65.6205 23.4486 65.4309 23.2294C65.2472 23.0041 64.948 22.8916 64.5331 22.8916C64.1302 22.8916 63.816 23.019 63.5909 23.2738C63.3716 23.5227 63.2531 23.8574 63.2353 24.2782H62.4531C62.4768 23.6145 62.6783 23.1019 63.0576 22.7405C63.4368 22.379 63.9257 22.1982 64.5242 22.1982C65.1346 22.1982 65.6176 22.3671 65.9731 22.7049C66.3346 23.0427 66.5153 23.5078 66.5153 24.1005C66.5153 24.5923 66.3672 25.0723 66.0709 25.5405C65.7805 26.0027 65.4487 26.4116 65.0753 26.7671C64.702 27.1167 64.2249 27.5256 63.6442 27.9938H66.702V28.6694H62.4264V28.0916ZM67.6371 25.4605C67.6371 24.4412 67.803 23.6471 68.1349 23.0782C68.4667 22.5034 69.0474 22.216 69.8771 22.216C70.7008 22.216 71.2785 22.5034 71.6105 23.0782C71.9423 23.6471 72.1082 24.4412 72.1082 25.4605C72.1082 26.4974 71.9423 27.3034 71.6105 27.8782C71.2785 28.453 70.7008 28.7405 69.8771 28.7405C69.0474 28.7405 68.4667 28.453 68.1349 27.8782C67.803 27.3034 67.6371 26.4974 67.6371 25.4605ZM71.3082 25.4605C71.3082 24.9449 71.2727 24.5094 71.2016 24.1538C71.1363 23.7923 70.9971 23.5019 70.7838 23.2827C70.5763 23.0634 70.2741 22.9538 69.8771 22.9538C69.4741 22.9538 69.166 23.0634 68.9527 23.2827C68.7452 23.5019 68.606 23.7923 68.5349 24.1538C68.4696 24.5094 68.4371 24.9449 68.4371 25.4605C68.4371 25.9938 68.4696 26.4412 68.5349 26.8027C68.606 27.1641 68.7452 27.4545 68.9527 27.6738C69.166 27.893 69.4741 28.0027 69.8771 28.0027C70.2741 28.0027 70.5763 27.893 70.7838 27.6738C70.9971 27.4545 71.1363 27.1641 71.2016 26.8027C71.2727 26.4412 71.3082 25.9938 71.3082 25.4605Z" fill="white"/>
</svg>
