<svg width="79" height="33" viewBox="0 0 79 33" fill="none" xmlns="http://www.w3.org/2000/svg">
<g clip-path="url(#clip0_1_956)">
<g clip-path="url(#clip1_1_956)">
<path d="M13.5499 4.20117L16.6525 7.37294L8.83971 15.1717L5.73706 12.0746L13.5499 4.20117Z" fill="white" stroke="white" stroke-width="0.886364"/>
<path d="M18.2599 8.90332L21.3626 12.0751L8.83971 24.5756L5.73706 21.4785L18.2599 8.90332Z" fill="white" stroke="white" stroke-width="0.886364"/>
<path d="M4.12978 13.6055L7.23246 16.7772L4.12978 19.8744L1.0271 16.7772L4.12978 13.6055Z" fill="white" stroke="white" stroke-width="0.886364"/>
<path d="M22.9702 13.6055L26.0728 16.7772L13.55 29.2777L10.4473 26.1806L22.9702 13.6055Z" fill="white" stroke="white" stroke-width="0.886364"/>
<path d="M42.4217 14.1447C43.0173 14.251 43.5225 14.5648 43.9373 15.086C44.3522 15.6072 44.5596 16.1975 44.5596 16.8569C44.5596 17.4207 44.4107 17.9312 44.1128 18.3886C43.8257 18.8353 43.4055 19.1916 42.8524 19.4575C42.2993 19.7128 41.6558 19.8404 40.9219 19.8404H36.4866V8.75199H40.7145C41.4697 8.75199 42.1185 8.87963 42.661 9.1349C43.2034 9.3902 43.6129 9.73588 43.8895 10.172C44.166 10.5974 44.3043 11.0761 44.3043 11.6079C44.3043 12.2461 44.1341 12.7779 43.7938 13.2033C43.4534 13.6288 42.996 13.9426 42.4217 14.1447ZM38.3054 13.4107H40.555C41.1506 13.4107 41.6133 13.2778 41.943 13.0119C42.2834 12.7353 42.4536 12.3418 42.4536 11.8312C42.4536 11.3313 42.2834 10.9431 41.943 10.6666C41.6133 10.3794 41.1506 10.2358 40.555 10.2358H38.3054V13.4107ZM40.7624 18.3567C41.3793 18.3567 41.8633 18.2077 42.2143 17.9099C42.5653 17.6121 42.7408 17.1973 42.7408 16.6655C42.7408 16.123 42.5546 15.6922 42.1823 15.3732C41.8101 15.0541 41.3155 14.8945 40.6986 14.8945H38.3054V18.3567H40.7624ZM48.3389 8.75199V15.8199C48.3389 16.6602 48.557 17.293 48.9931 17.7185C49.4398 18.1439 50.0567 18.3567 50.8438 18.3567C51.6415 18.3567 52.2584 18.1439 52.6945 17.7185C53.1413 17.293 53.3646 16.6602 53.3646 15.8199V8.75199H55.1834V15.788C55.1834 16.6921 54.9867 17.4579 54.5931 18.0854C54.1996 18.713 53.6731 19.181 53.0136 19.4894C52.3542 19.7979 51.6256 19.9521 50.8278 19.9521C50.0301 19.9521 49.3015 19.7979 48.6421 19.4894C47.9933 19.181 47.4774 18.713 47.0945 18.0854C46.7116 17.4579 46.5201 16.6921 46.5201 15.788V8.75199H48.3389ZM61.2051 19.9521C60.4606 19.9521 59.7905 19.8245 59.1949 19.5692C58.5992 19.3033 58.1312 18.931 57.7909 18.4524C57.4505 17.9737 57.2803 17.4153 57.2803 16.7772H59.2268C59.2693 17.2558 59.4554 17.6493 59.7852 17.9578C60.1255 18.2662 60.5989 18.4205 61.2051 18.4205C61.8327 18.4205 62.3219 18.2716 62.6729 17.9737C63.0239 17.6653 63.1994 17.2717 63.1994 16.7931C63.1994 16.4208 63.0878 16.1177 62.8644 15.8837C62.6517 15.6497 62.3804 15.4689 62.0507 15.3412C61.7316 15.2136 61.2849 15.0753 60.7105 14.9264C59.9873 14.735 59.3969 14.5435 58.9396 14.3521C58.4929 14.15 58.1099 13.8415 57.7909 13.4267C57.4718 13.0119 57.3122 12.4588 57.3122 11.7674C57.3122 11.1292 57.4718 10.5708 57.7909 10.0922C58.1099 9.61356 58.5567 9.24658 59.131 8.99131C59.7054 8.73603 60.3702 8.6084 61.1254 8.6084C62.1996 8.6084 63.0771 8.87963 63.7579 9.42211C64.4492 9.95392 64.8321 10.6878 64.9066 11.6238H62.8963C62.8644 11.2197 62.6729 10.874 62.3219 10.5868C61.9709 10.2996 61.5083 10.156 60.9339 10.156C60.4127 10.156 59.9873 10.289 59.6575 10.5549C59.3278 10.8208 59.1629 11.2037 59.1629 11.7036C59.1629 12.044 59.264 12.3258 59.4661 12.5492C59.6788 12.7619 59.9447 12.9321 60.2638 13.0597C60.5829 13.1874 61.019 13.3257 61.5721 13.4746C62.306 13.6767 62.9016 13.8787 63.359 14.0808C63.827 14.2829 64.2205 14.5967 64.5396 15.0222C64.8694 15.437 65.0342 15.9954 65.0342 16.6974C65.0342 17.2611 64.88 17.7929 64.5715 18.2928C64.2737 18.7927 63.8323 19.1969 63.2473 19.5054C62.6729 19.8032 61.9922 19.9521 61.2051 19.9521ZM70.8021 8.75199C71.9827 8.75199 73.0144 8.98067 73.8972 9.43806C74.7907 9.88479 75.4767 10.5336 75.9554 11.3845C76.4446 12.2248 76.6893 13.2087 76.6893 14.3361C76.6893 15.4636 76.4446 16.4421 75.9554 17.2717C75.4767 18.1014 74.7907 18.7396 73.8972 19.1863C73.0144 19.6224 71.9827 19.8404 70.8021 19.8404H67.1804V8.75199H70.8021ZM70.8021 18.3567C72.0997 18.3567 73.0942 18.0057 73.7855 17.3037C74.4769 16.6017 74.8226 15.6125 74.8226 14.3361C74.8226 13.0491 74.4769 12.044 73.7855 11.3207C73.0942 10.5974 72.0997 10.2358 70.8021 10.2358H68.9992V18.3567H70.8021Z" fill="white"/>
<path d="M44.7392 25.5223C44.9637 25.5577 45.1675 25.6493 45.3508 25.797C45.5398 25.9447 45.6876 26.1279 45.7939 26.3466C45.9061 26.5652 45.9623 26.7986 45.9623 27.0468C45.9623 27.36 45.8826 27.6436 45.723 27.8977C45.5635 28.1459 45.33 28.3438 45.0228 28.4916C44.7214 28.6334 44.3639 28.7043 43.9503 28.7043H41.6458V22.5263H43.8617C44.2812 22.5263 44.6386 22.5973 44.9342 22.7391C45.2296 22.875 45.4512 23.0611 45.5989 23.2975C45.7466 23.5338 45.8205 23.7997 45.8205 24.0952C45.8205 24.4615 45.72 24.7658 45.5192 25.0082C45.3242 25.2445 45.0641 25.4159 44.7392 25.5223ZM42.4523 25.1943H43.8085C44.1866 25.1943 44.4791 25.1057 44.686 24.9284C44.8928 24.7511 44.9962 24.5059 44.9962 24.1927C44.9962 23.8795 44.8928 23.6343 44.686 23.457C44.4791 23.2798 44.1808 23.1911 43.7908 23.1911H42.4523V25.1943ZM43.8794 28.0395C44.2812 28.0395 44.5943 27.945 44.8189 27.7559C45.0435 27.5667 45.1558 27.3038 45.1558 26.967C45.1558 26.6243 45.0375 26.3554 44.8012 26.1604C44.5648 25.9595 44.2486 25.8591 43.8528 25.8591H42.4523V28.0395H43.8794ZM47.8882 23.1823V25.2475H50.1396V25.9123H47.8882V28.0395H50.4055V28.7043H47.0816V22.5175H50.4055V23.1823H47.8882ZM55.7564 24.3345C55.7564 24.8486 55.5791 25.277 55.2246 25.6198C54.876 25.9566 54.3412 26.125 53.6203 26.125H52.4325V28.7043H51.6259V22.5263H53.6203C54.3176 22.5263 54.8465 22.6948 55.2069 23.0316C55.5733 23.3684 55.7564 23.8027 55.7564 24.3345ZM53.6203 25.4602C54.0694 25.4602 54.4003 25.3627 54.613 25.1677C54.8257 24.9727 54.9321 24.6949 54.9321 24.3345C54.9321 23.5723 54.4948 23.1911 53.6203 23.1911H52.4325V25.4602H53.6203ZM60.1271 25.1145V25.797H56.5905V25.1145H60.1271ZM61.4104 28.0573C62.1608 27.4545 62.7488 26.9611 63.1743 26.577C63.5997 26.187 63.9572 25.7822 64.2468 25.3627C64.5422 24.9373 64.69 24.5207 64.69 24.1129C64.69 23.7288 64.5954 23.4274 64.4063 23.2088C64.2231 22.9842 63.9247 22.872 63.5111 22.872C63.1092 22.872 62.7961 22.999 62.5716 23.2532C62.3529 23.5013 62.2347 23.8352 62.217 24.2548H61.437C61.4606 23.5929 61.6615 23.0817 62.0397 22.7213C62.4179 22.3609 62.9054 22.1807 63.5022 22.1807C64.1108 22.1807 64.5925 22.3491 64.947 22.6859C65.3074 23.0227 65.4877 23.4865 65.4877 24.0775C65.4877 24.5679 65.3399 25.0465 65.0445 25.5134C64.7549 25.9743 64.4241 26.382 64.0518 26.7366C63.6795 27.0852 63.2038 27.4929 62.6247 27.9598H65.6738V28.6334H61.4104V28.0573ZM66.6062 25.4336C66.6062 24.4172 66.7717 23.6254 67.1026 23.0582C67.4334 22.485 68.0126 22.1984 68.8398 22.1984C69.6612 22.1984 70.2374 22.485 70.5682 23.0582C70.8991 23.6254 71.0646 24.4172 71.0646 25.4336C71.0646 26.4677 70.8991 27.2713 70.5682 27.8445C70.2374 28.4177 69.6612 28.7043 68.8398 28.7043C68.0126 28.7043 67.4334 28.4177 67.1026 27.8445C66.7717 27.2713 66.6062 26.4677 66.6062 25.4336ZM70.2669 25.4336C70.2669 24.9195 70.2314 24.4852 70.1605 24.1307C70.0955 23.7702 69.9566 23.4806 69.7439 23.262C69.5371 23.0434 69.2358 22.9341 68.8398 22.9341C68.438 22.9341 68.1307 23.0434 67.918 23.262C67.7112 23.4806 67.5723 23.7702 67.5014 24.1307C67.4365 24.4852 67.4039 24.9195 67.4039 25.4336C67.4039 25.9654 67.4365 26.4115 67.5014 26.772C67.5723 27.1324 67.7112 27.422 67.918 27.6407C68.1307 27.8592 68.438 27.9686 68.8398 27.9686C69.2358 27.9686 69.5371 27.8592 69.7439 27.6407C69.9566 27.422 70.0955 27.1324 70.1605 26.772C70.2314 26.4115 70.2669 25.9654 70.2669 25.4336Z" fill="white"/>
</g>
</g>
<defs>
<clipPath id="clip0_1_956">
<rect width="78" height="32" fill="white" transform="translate(0.27002 0.419922)"/>
</clipPath>
<clipPath id="clip1_1_956">
<rect width="78" height="32" fill="white" transform="translate(0.27002 0.419922)"/>
</clipPath>
</defs>
</svg>
