<svg width="79" height="33" viewBox="0 0 79 33" fill="none" xmlns="http://www.w3.org/2000/svg">
<g clip-path="url(#clip0_1_972)">
<path d="M23.408 8.28223H3.12799C2.67977 8.28223 2.24991 8.46028 1.93297 8.77721C1.61604 9.09415 1.43799 9.52401 1.43799 9.97223V23.4923C1.43799 23.9404 1.61604 24.3703 1.93297 24.6872C2.24991 25.0042 2.67977 25.1823 3.12799 25.1823H23.408C23.8562 25.1823 24.286 25.0042 24.603 24.6872C24.9199 24.3703 25.098 23.9404 25.098 23.4923V9.97223C25.098 9.52401 24.9199 9.09415 24.603 8.77721C24.286 8.46028 23.8562 8.28223 23.408 8.28223ZM14.113 21.8023H12.423C12.1989 21.8023 11.984 21.7132 11.8255 21.5548C11.667 21.3962 11.578 21.1813 11.578 20.9573C11.578 20.7331 11.667 20.5182 11.8255 20.3597C11.984 20.2013 12.1989 20.1123 12.423 20.1123H14.113C14.3371 20.1123 14.552 20.2013 14.7105 20.3597C14.8689 20.5182 14.958 20.7331 14.958 20.9573C14.958 21.1813 14.8689 21.3962 14.7105 21.5548C14.552 21.7132 14.3371 21.8023 14.113 21.8023ZM20.873 21.8023H17.493C17.2689 21.8023 17.054 21.7132 16.8955 21.5548C16.737 21.3962 16.648 21.1813 16.648 20.9573C16.648 20.7331 16.737 20.5182 16.8955 20.3597C17.054 20.2013 17.2689 20.1123 17.493 20.1123H20.873C21.0971 20.1123 21.312 20.2013 21.4705 20.3597C21.6289 20.5182 21.718 20.7331 21.718 20.9573C21.718 21.1813 21.6289 21.3962 21.4705 21.5548C21.312 21.7132 21.0971 21.8023 20.873 21.8023ZM3.12799 12.5073V9.97223H23.408V12.5073H3.12799Z" fill="white"/>
<path d="M34.5127 16.9209C34.5127 15.8601 34.7571 14.9085 35.2459 14.0661C35.7451 13.2237 36.4159 12.5685 37.2583 12.1005C38.1111 11.622 39.0419 11.3828 40.0507 11.3828C41.2051 11.3828 42.2295 11.6688 43.1239 12.2409C44.0287 12.8025 44.6839 13.6033 45.0895 14.6433H42.9523C42.6715 14.0713 42.2815 13.6449 41.7823 13.3641C41.2831 13.0833 40.7059 12.9429 40.0507 12.9429C39.3331 12.9429 38.6935 13.1041 38.1319 13.4265C37.5703 13.7489 37.1283 14.2117 36.8059 14.8149C36.4939 15.4181 36.3379 16.1201 36.3379 16.9209C36.3379 17.7217 36.4939 18.4237 36.8059 19.0269C37.1283 19.6301 37.5703 20.0981 38.1319 20.4309C38.6935 20.7533 39.3331 20.9145 40.0507 20.9145C40.7059 20.9145 41.2831 20.7741 41.7823 20.4933C42.2815 20.2125 42.6715 19.7861 42.9523 19.2141H45.0895C44.6839 20.2541 44.0287 21.0549 43.1239 21.6165C42.2295 22.1781 41.2051 22.4589 40.0507 22.4589C39.0315 22.4589 38.1007 22.2249 37.2583 21.7569C36.4159 21.2785 35.7451 20.6181 35.2459 19.7757C34.7571 18.9333 34.5127 17.9817 34.5127 16.9209ZM53.7075 20.1501H49.1679L48.3879 22.3653H46.5315L50.4159 11.5076H52.4751L56.3595 22.3653H54.4875L53.7075 20.1501ZM53.2083 18.6993L51.4455 13.6605L49.6671 18.6993H53.2083ZM63.6801 22.3653L61.1841 18.0285H59.8269V22.3653H58.0485V11.5232H61.7925C62.6245 11.5232 63.3265 11.6688 63.8985 11.96C64.4809 12.2513 64.9125 12.6413 65.1933 13.1301C65.4845 13.6189 65.6301 14.1649 65.6301 14.7681C65.6301 15.4753 65.4221 16.1201 65.0061 16.7025C64.6005 17.2745 63.9713 17.6645 63.1185 17.8725L65.8017 22.3653H63.6801ZM59.8269 16.6089H61.7925C62.4581 16.6089 62.9573 16.4425 63.2901 16.1097C63.6333 15.7769 63.8049 15.3297 63.8049 14.7681C63.8049 14.2065 63.6385 13.7697 63.3057 13.4577C62.9729 13.1353 62.4685 12.9741 61.7925 12.9741H59.8269V16.6089ZM71.4463 11.5232C72.6007 11.5232 73.6095 11.7468 74.4727 12.1941C75.3463 12.6309 76.0171 13.2653 76.4851 14.0973C76.9635 14.9189 77.2027 15.8809 77.2027 16.9833C77.2027 18.0857 76.9635 19.0425 76.4851 19.8537C76.0171 20.6649 75.3463 21.2889 74.4727 21.7257C73.6095 22.1521 72.6007 22.3653 71.4463 22.3653H67.9051V11.5232H71.4463ZM71.4463 20.9145C72.7151 20.9145 73.6875 20.5713 74.3635 19.8849C75.0395 19.1985 75.3775 18.2313 75.3775 16.9833C75.3775 15.7249 75.0395 14.7421 74.3635 14.0349C73.6875 13.3277 72.7151 12.9741 71.4463 12.9741H69.6835V20.9145H71.4463Z" fill="white"/>
</g>
<defs>
<clipPath id="clip0_1_972">
<rect width="78" height="32" fill="white" transform="translate(0.699951 0.419922)"/>
</clipPath>
</defs>
</svg>
