<svg width="36" height="37" viewBox="0 0 36 37" fill="none" xmlns="http://www.w3.org/2000/svg">
<g clip-path="url(#clip0_1_1272)">
<g clip-path="url(#clip1_1_1272)">
<path d="M18 0.25C14.44 0.25 10.9598 1.30568 7.99974 3.28355C5.03966 5.26141 2.73255 8.07263 1.37018 11.3617C0.00779911 14.6508 -0.348661 18.27 0.345873 21.7616C1.04041 25.2532 2.75474 28.4606 5.27208 30.978C7.78943 33.4953 10.9967 35.2096 14.4884 35.9041C17.98 36.5986 21.5992 36.2422 24.8883 34.8798C28.1774 33.5175 30.9886 31.2103 32.9665 28.2502C34.9443 25.2901 36 21.81 36 18.25C35.995 13.4776 34.097 8.90221 30.7224 5.52764C27.3478 2.15308 22.7723 0.25504 18 0.25ZM25.9027 15.0758L16.2103 24.768C16.0818 24.8968 15.9291 24.9989 15.761 25.0686C15.5929 25.1383 15.4128 25.1741 15.2308 25.1741C15.0488 25.1741 14.8686 25.1383 14.7005 25.0686C14.5325 24.9989 14.3798 24.8968 14.2511 24.768L10.0973 20.6142C9.83754 20.3544 9.69156 20.002 9.69156 19.6346C9.69156 19.2672 9.83754 18.9148 10.0973 18.655C10.3571 18.3951 10.7095 18.2493 11.0769 18.2493C11.4444 18.2493 11.7968 18.3951 12.0566 18.655L15.2308 21.831L23.9434 13.1166C24.0721 12.9879 24.2248 12.8858 24.3929 12.8162C24.561 12.7466 24.7412 12.7107 24.9231 12.7107C25.105 12.7107 25.2851 12.7466 25.4533 12.8162C25.6213 12.8858 25.774 12.9879 25.9027 13.1166C26.0313 13.2452 26.1334 13.3979 26.203 13.566C26.2726 13.734 26.3084 13.9142 26.3084 14.0961C26.3084 14.2781 26.2726 14.4582 26.203 14.6263C26.1334 14.7944 26.0313 14.9472 25.9027 15.0758Z" fill="white"/>
</g>
</g>
<defs>
<clipPath id="clip0_1_1272">
<rect width="36" height="36" fill="white" transform="translate(0 0.25)"/>
</clipPath>
<clipPath id="clip1_1_1272">
<rect width="36" height="36" fill="white" transform="translate(0 0.25)"/>
</clipPath>
</defs>
</svg>
