<svg width="36" height="37" viewBox="0 0 36 37" fill="none" xmlns="http://www.w3.org/2000/svg">
<path d="M18 0.25C14.44 0.25 10.9598 1.30568 7.99974 3.28355C5.03966 5.26141 2.73255 8.07263 1.37018 11.3617C0.00779911 14.6508 -0.348661 18.27 0.345873 21.7616C1.04041 25.2532 2.75474 28.4606 5.27208 30.978C7.78943 33.4953 10.9967 35.2096 14.4884 35.9041C17.98 36.5986 21.5992 36.2422 24.8883 34.8798C28.1774 33.5175 30.9886 31.2103 32.9665 28.2502C34.9443 25.2901 36 21.81 36 18.25C35.995 13.4776 34.097 8.9022 30.7224 5.52764C27.3478 2.15308 22.7723 0.25504 18 0.25ZM24.5181 22.8088C24.6468 22.9374 24.7487 23.0902 24.8184 23.2583C24.888 23.4264 24.9239 23.6065 24.9239 23.7885C24.9239 23.9704 24.888 24.1506 24.8184 24.3186C24.7487 24.4867 24.6468 24.6394 24.5181 24.768C24.3895 24.8967 24.2367 24.9987 24.0686 25.0684C23.9006 25.138 23.7204 25.1739 23.5384 25.1739C23.3565 25.1739 23.1763 25.138 23.0083 25.0684C22.8402 24.9987 22.6875 24.8967 22.5589 24.768L18 20.2075L13.4411 24.768C13.3125 24.8967 13.1598 24.9987 12.9917 25.0684C12.8236 25.138 12.6435 25.1739 12.4616 25.1739C12.2796 25.1739 12.0994 25.138 11.9314 25.0684C11.7633 24.9987 11.6105 24.8967 11.4819 24.768C11.3533 24.6394 11.2513 24.4867 11.1816 24.3186C11.112 24.1506 11.0761 23.9704 11.0761 23.7885C11.0761 23.6065 11.112 23.4264 11.1816 23.2583C11.2513 23.0902 11.3533 22.9374 11.4819 22.8088L16.0425 18.25L11.4819 13.6911C11.2221 13.4314 11.0761 13.0789 11.0761 12.7116C11.0761 12.3441 11.2221 11.9917 11.4819 11.7319C11.7418 11.4721 12.0941 11.3262 12.4616 11.3262C12.829 11.3262 13.1813 11.4721 13.4411 11.7319L18 16.2925L22.5589 11.7319C22.6875 11.6033 22.8402 11.5012 23.0083 11.4316C23.1763 11.362 23.3565 11.3262 23.5384 11.3262C23.7204 11.3262 23.9006 11.362 24.0686 11.4316C24.2367 11.5012 24.3895 11.6033 24.5181 11.7319C24.6468 11.8606 24.7487 12.0132 24.8184 12.1814C24.888 12.3495 24.9239 12.5296 24.9239 12.7116C24.9239 12.8934 24.888 13.0736 24.8184 13.2417C24.7487 13.4098 24.6468 13.5625 24.5181 13.6911L19.9575 18.25L24.5181 22.8088Z" fill="#9999A2"/>
</svg>
