<svg width="21" height="20" viewBox="0 0 21 20" fill="none" xmlns="http://www.w3.org/2000/svg">
<path d="M10.73 0.0488281C8.80158 0.0488281 6.91655 0.620658 5.31317 1.692C3.7098 2.76334 2.46011 4.28609 1.72216 6.06767C0.984202 7.84923 0.791122 9.80963 1.16733 11.7009C1.54353 13.5922 2.47213 15.3295 3.83569 16.6931C5.19926 18.0567 6.93654 18.9853 8.82788 19.3615C10.7192 19.7377 12.6796 19.5446 14.4612 18.8066C16.2427 18.0687 17.7655 16.819 18.8368 15.2156C19.9082 13.6122 20.48 11.7272 20.48 9.79883C20.4773 7.21381 19.4492 4.73544 17.6213 2.90755C15.7934 1.07967 13.315 0.0515581 10.73 0.0488281ZM10.73 18.0488C9.09828 18.0488 7.50324 17.5649 6.14653 16.6584C4.78982 15.7519 3.7324 14.4634 3.10798 12.9559C2.48356 11.4484 2.32018 9.78963 2.63851 8.18933C2.95683 6.58899 3.74257 5.11898 4.89635 3.9652C6.05014 2.81142 7.52015 2.02568 9.12048 1.70735C10.7209 1.38902 12.3797 1.5524 13.8871 2.17682C15.3946 2.80125 16.6831 3.85867 17.5896 5.21538C18.4961 6.57208 18.98 8.16713 18.98 9.79883C18.9775 11.9861 18.1075 14.0831 16.5609 15.6297C15.0143 17.1763 12.9173 18.0463 10.73 18.0488ZM12.23 14.2988C12.23 14.4977 12.151 14.6885 12.0103 14.8291C11.8697 14.9698 11.6789 15.0488 11.48 15.0488C11.0822 15.0488 10.7006 14.8908 10.4193 14.6095C10.138 14.3282 9.97998 13.9466 9.97998 13.5488V9.79883C9.78108 9.79883 9.59028 9.71983 9.44968 9.57913C9.30898 9.43853 9.22998 9.24773 9.22998 9.04883C9.22998 8.84993 9.30898 8.65913 9.44968 8.51853C9.59028 8.37783 9.78108 8.29883 9.97998 8.29883C10.3778 8.29883 10.7594 8.45683 11.0407 8.73813C11.322 9.01943 11.48 9.40103 11.48 9.79883V13.5488C11.6789 13.5488 11.8697 13.6278 12.0103 13.7685C12.151 13.9091 12.23 14.0999 12.23 14.2988ZM9.22998 5.67383C9.22998 5.45133 9.29598 5.23382 9.41958 5.04881C9.54318 4.86381 9.71888 4.71961 9.92448 4.63447C10.1301 4.54932 10.3563 4.52704 10.5745 4.57045C10.7927 4.61385 10.9932 4.721 11.1505 4.87833C11.3078 5.03567 11.415 5.23612 11.4584 5.45435C11.5018 5.67258 11.4795 5.89878 11.3944 6.10435C11.3092 6.30992 11.165 6.48562 10.98 6.60923C10.795 6.73285 10.5775 6.79883 10.355 6.79883C10.0566 6.79883 9.77048 6.6803 9.55948 6.46933C9.34848 6.25835 9.22998 5.9722 9.22998 5.67383Z" fill="#F389C0"/>
</svg>
